<svg width="148" height="49" viewBox="0 0 148 49" fill="white" xmlns="http://www.w3.org/2000/svg">
  <path d="M47.004624,7.32695183 C47.0287358,9.34120612 47.0540533,11.3688401 47.0817819,13.3843108 C48.5309047,13.0923898 49.9896722,12.807767 51.4472341,12.5389564 C51.4472341,12.937915 51.4532621,13.3368736 51.4508509,13.7358322 C51.4375894,15.1869224 50.7696909,15.9982193 49.3290072,16.5102972 C48.8154246,16.6927478 47.6255043,16.8764147 47.0926322,16.9871013 C47.1529119,21.0776431 47.1975188,25.1742666 47.2505649,29.2684574 C47.2602097,30.1697632 47.2734712,30.9895744 47.3988529,31.5503058 C47.5700471,32.2995695 48.3440378,32.4090399 48.8998161,32.3105166 C49.9764107,32.1232006 51.1976764,31.6099064 52.2151969,30.4446554 C53.1278308,33.1534382 51.5292145,35.8050531 46.7888228,36.8121803 C43.5276938,37.5054925 41.0839568,36.5591822 40.5161225,34.0352826 C40.3268444,33.199659 40.3063493,32.1937482 40.2858542,30.9774111 C40.2255746,26.8114564 40.1785565,22.6552324 40.1243048,18.4990084 C38.9187118,18.7751169 37.7167356,19.0536581 36.5135538,19.3431464 C36.4870307,19.1777245 36.4677412,18.3980524 36.4568909,18.0684251 C36.4159007,16.8034344 37.0946496,15.4216755 38.849993,15.1127258 C39.640862,14.9740634 39.7083752,14.969198 40.4944218,14.7903965 C40.4835715,13.893956 40.5016554,12.9987319 40.4618708,12.1071568 C40.3750681,10.1719644 41.7699392,8.46422705 44.1099952,7.90957731 C45.0684416,7.68577128 46.0377384,7.51548408 47.004624,7.32695183"/>
  <path d="M33.8507605,20.4785971 C34.3257642,26.8193626 34.3354089,33.2489207 34.5837611,39.6383396 C33.4131303,40.0251348 32.2654057,40.5408618 31.0766911,40.819403 C29.2526289,41.245121 27.7781886,41.043209 27.5780602,38.5022807 C27.0680944,32.0459632 27.0415713,25.5178818 26.7763409,19.0421029 C28.1229882,18.5859765 29.4636076,18.1091723 30.8211053,17.7029157 C32.83324,17.0996125 33.6675104,18.0203797 33.8507605,20.4785971"/>
  <path d="M132.417391,24.5545428 C133.999129,27.4044207 135.584484,30.259164 137.169839,33.1224216 C138.558682,31.2894015 139.964403,29.4794919 141.350835,27.6695822 C142.298431,26.435 143.378643,26.3863465 144.603525,26.842473 C145.699409,27.2499459 146.794087,27.6841783 147.886355,28.1111126 C145.120724,31.2042579 142.358711,34.3472731 139.608753,37.5498888 C139.543651,41.0067189 139.483372,44.4659817 139.424298,47.9374079 C138.113818,47.4703344 136.794899,47.0774575 135.490448,46.5592979 C133.830346,45.8988268 132.659715,44.7250615 132.709145,42.4529437 C132.762191,40.0239185 132.791125,37.5900279 132.834526,35.1597863 C129.674667,29.8602054 126.51963,24.5752206 123.363388,19.3145624 C125.098236,19.8777265 126.839112,20.3825065 128.566727,21.0429775 C131.244349,22.0683497 131.915864,23.6520207 132.417391,24.5545428"/>
  <path d="M90.9922515,27.961868 C90.7607776,26.9279815 89.6865943,26.0266757 86.5424077,24.3189383 C82.3035428,21.9604606 80.4179953,20.27705 80.0177385,18.3771314 C79.0966654,14.0688653 82.812303,10.9513932 88.5195802,11.4938796 C91.251454,11.7566084 93.8205726,12.6834573 97.0479451,14.5602655 C96.9394417,14.7366344 96.503017,15.5126575 96.0087239,16.3543628 C95.575916,17.0890304 93.9604214,17.2447215 92.9332562,16.6766921 C91.5034229,15.8848566 90.0543001,15.359399 88.8270065,15.2487123 C87.2054839,15.0954538 86.1554124,15.9845963 86.429082,17.2581013 C86.6316216,18.2323873 87.776935,19.1203134 90.7873007,20.7380418 C95.2443779,23.1366586 97.2480735,25.0098178 97.6977597,27.0982687 C98.6815236,31.7045374 94.6451982,34.7344332 88.5509257,34.2454657 C85.5682886,33.9985492 82.1793667,32.9889894 79.4016805,31.5111398 C79.4523154,31.3238239 79.5945753,30.7667415 79.8284604,29.66474 C80.1250363,28.2732503 81.8164832,28.1102612 82.6857158,28.5469262 C84.7424574,29.5844618 86.6714062,30.310615 88.2410883,30.4407631 C90.1423084,30.6001033 91.3274063,29.54189 90.9922515,27.961868"/>
  <path d="M16.0041264,33.4240732 C15.9317908,29.8541237 16.2609177,25.6991161 17.2350368,22.0695661 C19.09165,11.8961223 25.0991199,5.59427958 27.3596068,3.6821976 C31.3597643,0.300780372 37.2382357,-1.1296321 38.3220638,2.37098617 C38.6077893,3.29418606 38.5294258,6.02607926 35.4406966,7.37256447 C30.1963671,9.65927828 24.7410588,13.948083 20.9012451,23.9135332 C17.5798364,30.5523012 17.3230451,37.7688294 17.2796438,41.0067189 C16.964984,40.3523295 16.5876334,39.4777831 16.3670099,38.0230439 C16.1729094,36.6960201 16.0463221,35.1232962 16.0041264,33.4240732"/>
  <path d="M18.4947609,45.9195046 C17.0420214,46.6018697 16.7900525,46.6943113 15.3385185,47.3754601 C12.7284097,48.601528 11.5999746,47.7561736 10.6801072,45.8672021 C6.9270962,38.1702207 3.68043428,31.2857525 -0.000241118596,23.5839058 C1.76354143,22.6704366 3.23798165,21.9223893 5.01382013,21.0478429 C6.59555813,20.2681708 7.5986115,20.8313349 8.1652402,22.0428066 C11.818187,29.85534 15.0515874,37.9500637 18.4947609,45.9195046"/>
  <path d="M112.166081,14.3386489 C105.51603,13.2925989 99.9244899,17.9390068 99.6761378,24.7164373 C99.4410471,31.1386974 104.089814,37.1705132 110.234721,38.6751222 C110.513213,36.1281123 110.631361,33.0434813 108.139401,30.495255 C106.660138,28.983348 105.640206,28.2839541 104.480426,27.7353861 C105.481068,28.6598023 106.534756,29.6730111 107.566744,30.9367854 C106.144144,31.14113 104.972308,30.5220144 104.171794,29.6851745 C103.359224,28.8349548 103.119311,27.8436401 102.136753,26.9131422 C101.975204,26.7598837 101.910102,26.5032365 102.164482,26.4266073 C103.001163,26.1736092 104.739628,26.0763022 106.276759,26.8389456 C108.638516,28.0090619 108.754253,29.748424 108.754253,29.748424 C109.091819,30.1157578 110.147918,31.1678895 110.647034,32.075277 C110.641006,30.4855243 110.708519,28.023658 108.616815,25.6724783 C107.242439,24.1277301 106.083865,23.2069629 105.424405,22.0684714 C105.58716,23.0451901 106.537167,24.5218234 108.000757,25.8293858 C106.894023,25.6177431 105.566665,24.9329453 104.739628,23.6922814 C103.988544,22.5635206 104.095842,20.9190328 104.392418,19.9094729 C104.470781,19.6382298 104.7336,19.6625565 104.912028,19.8255457 C105.783672,20.6246792 107.438951,21.1209447 108.363641,22.2922774 C109.422151,23.6326809 109.330526,24.3746466 109.353433,25.1579677 C109.572851,25.462052 110.430027,26.4947222 110.892975,27.7220064 C110.892975,27.7220064 111.141327,24.942676 111.105159,23.3261639 C109.923678,22.482026 109.428179,21.0272868 109.595757,19.9617754 C109.766951,18.8792354 110.749509,17.6166774 111.668171,16.5645458 C111.898439,16.2993843 112.311958,16.3103314 112.48918,16.7190206 C113.037725,17.9742806 114.081768,19.8997422 114.01305,21.3143423 C113.956387,22.4917567 113.270404,23.3456253 112.494002,23.4952348 C112.430106,21.9006168 112.16367,20.1235483 111.921346,19.1857523 C111.543995,21.8093915 112.225155,24.3916753 112.115446,27.8995916 C112.41805,27.3765666 112.901493,26.6783891 113.374085,26.2283443 C113.457271,25.0132236 113.867173,24.2165227 114.869021,23.6302482 C115.999867,22.9685608 117.991506,23.0001856 119.912016,23.874732 C120.260432,24.0340722 120.189302,24.3357238 120.066332,24.4281654 C119.043989,25.1993231 118.958392,26.5129672 117.31758,27.3692686 C115.921503,28.1002872 114.667687,27.6441608 114.325298,27.3741339 C114.9293,26.4983712 116.049296,25.2686544 117.544231,24.606967 C114.878665,24.7006249 112.035877,28.1915125 112.20466,32.3440875 C112.643496,31.7748417 113.398197,31.3369603 114.070918,31.0024676 C114.209561,30.2459059 114.887105,29.30811 116.553234,29.2472931 C118.063842,29.1913416 119.07654,29.7435587 120.364113,29.5659734 C120.882518,29.4942096 120.937976,29.8177552 120.922303,29.9941241 C120.765576,31.7979521 119.512965,32.8829248 117.861302,33.2186339 C115.888952,33.6212414 114.561594,32.5022113 114.561594,32.5022113 C115.216231,31.7371352 117.110218,30.9221893 118.371268,30.6777056 C115.798533,30.289694 112.541021,32.4499088 112.281818,35.3679016 C112.141969,36.9442745 112.169698,38.0304636 112.240828,38.9974516 C118.454454,39.4669577 123.521562,34.9506979 123.757858,28.5053275 C124.005004,21.727897 118.814926,15.3846988 112.166081,14.3386489"/>
  <path d="M67.7239451,11.3210381 C56.035721,11.5934976 52.7938815,22.1342752 54.1742855,28.5686986 C54.8964357,31.9087604 57.6548324,34.7379606 61.9383043,34.6795764 C67.6672822,34.6005145 69.0018737,31.3918171 68.3725541,27.8948479 C67.4116965,29.0284741 65.9408731,29.9796497 64.0697927,29.858016 C63.0655338,29.7911174 61.8695855,29.1805162 61.5284027,27.6345517 C61.5235803,27.6187393 61.518758,27.6029269 61.5175524,27.5895472 C60.6688149,23.6206392 62.1842453,14.8338197 67.5696292,14.7073207 C68.248378,14.6951573 69.4768773,14.7948969 70.0145718,14.928694 C70.0145718,14.928694 69.63481,23.0039562 69.5540352,27.4143947 C69.5492129,28.3181332 69.5371569,28.8618359 69.5178675,30.0076255 C69.4744661,32.5534191 71.3045563,33.6943433 73.4939131,33.7709726 C74.4487428,33.8038137 75.3975445,33.7429968 76.3535797,33.7369151 C76.4198873,26.7429766 76.4765502,19.7697158 76.545269,12.8061857 C74.1232327,12.0411097 70.9018882,11.2565722 67.7239451,11.3210381"/>
</svg>
